PathFileType	4	(X/Y/Z)	62_2_107_p1_0-437_filt_butterworth.trc
DataRate	CameraRate	NumFrames	NumMarkers	Units	OrigDataRate	OrigDataStartFrame	OrigNumFrames
60.0	60.0	5	27	m	60.0	327	437
Frame#	Time	RHip			RKnee			RAnkle			RBigToe			RSmallToe			RHeel			LHip			LKnee			LAnkle			LBigToe			LSmallToe			LHeel			Neck			Head			Nose			RShoulder			RElbow			RWrist			RThumb			RIndex			RPinky			LShoulder			LElbow			LWrist			LThumb			LIndex			LPinky			
		X1	Y1	Z1	X2	Y2	Z2	X3	Y3	Z3	X4	Y4	Z4	X5	Y5	Z5	X6	Y6	Z6	X7	Y7	Z7	X8	Y8	Z8	X9	Y9	Z9	X10	Y10	Z10	X11	Y11	Z11	X12	Y12	Z12	X13	Y13	Z13	X14	Y14	Z14	X15	Y15	Z15	X16	Y16	Z16	X17	Y17	Z17	X18	Y18	Z18	X19	Y19	Z19	X20	Y20	Z20	X21	Y21	Z21	X22	Y22	Z22	X23	Y23	Z23	X24	Y24	Z24	X25	Y25	Z25	X26	Y26	Z26	X27	Y27	Z27	
327	5.45	0.2927088328921719	0.32169663626001	0.6087542482841344	0.2940414592565275	-0.044333759274354456	0.7681462865313428	0.3147943058766907	-0.44035619588700853	0.8700724579485917	0.2932439970050792	-0.5369591680304768	0.7621721562800383	0.3682335871369323	-0.5212532552626539	0.7786019231519395	0.3064589021751724	-0.5165718708304414	0.95952732929627	0.08346446089936504	0.3430417121922292	0.6532507695193059	0.12953066777135447	-0.04325316281672764	0.8384648706260975	0.1468604816691764	-0.44506483521509116	0.942484205229143	0.10563053047303603	-0.5171606013983229	0.783807826336869	0.06637870027972498	-0.5122105715935563	0.8406251141644939	0.18100845634754972	-0.49015421734616693	0.9981641095381351	0.18362531355607045	0.9219404136134404	0.5569081033657146	0.1848388111464938	1.1471374276406245	0.5150336171254275	0.17518701239409776	1.0121178423731205	0.46051738577846346	0.3393555878058907	0.816606098343884	0.5934992508384364	0.3911888109456356	0.5325868752579551	0.5442041450776726	0.3968417695403093	0.265268598647	0.5614462749023126	0.32619526113024705	0.1717057462804829	0.5142669339891366	0.34548091412848725	0.1493523550637295	0.5169924185099157	0.39537949543218553	0.15334497209813444	0.5900918936285258	0.04810420066421186	0.8588758355241649	0.6391689334704811	-0.11165098842458762	0.7616801685317056	0.5335886484038599	0.043337415135809285	0.9295044296449112	0.5643479869735424	0.06401032832344876	0.9859908546729338	0.5691179339500213	0.05982424730230318	1.0179911993530888	0.5592456757271241	0.04560056491226444	0.9936505108174362	0.5417052947371779	
328	5.466666666666667	0.2926416813389755	0.3216141175269448	0.6087155775313453	0.2937896089824179	-0.04381961034054632	0.7681327340101031	0.31489579520474786	-0.4398275615547666	0.8697748085759858	0.2932958591040714	-0.5371017064961009	0.7622864447558696	0.36822104299086544	-0.5216274706333797	0.7791024013048593	0.30662827181690966	-0.5170026967098141	0.9599521667679503	0.08374657608253146	0.3436365121771146	0.6510597403832741	0.13025827822136818	-0.04269831651210532	0.8379685265777477	0.1468196028058567	-0.44502242649084894	0.9424281195357638	0.10533463314687454	-0.5185697892048139	0.7870372334699162	0.06636758557588782	-0.5121267326892912	0.8406337743093033	0.18060433295388023	-0.48998259104488806	0.9978417988444022	0.1834406414116908	0.9227563236651245	0.5572814182800533	0.18464357481930221	1.1483531923936527	0.5147859557071717	0.17408392090243802	1.0133074343836639	0.4626529179469182	0.33954481288733035	0.816616195588497	0.5907114018820038	0.3911940849496549	0.5317924599769777	0.5440798913977812	0.3959593854255117	0.26466296813712775	0.5613361854366699	0.32640714952051475	0.17217474818379613	0.5133887610519333	0.3440918214220534	0.14947371160964745	0.5154554185349596	0.39525285392580245	0.15336803437155871	0.5900946766874301	0.04801689910416817	0.8596436757523154	0.6418687573875826	-0.11244497617662971	0.7622146139973692	0.5313327115723885	0.042202309011470006	0.9304766121952023	0.5597913153767093	0.06453307318611967	0.982365043535684	0.5612361025042202	0.06064518965759879	1.0158933524731923	0.5499100107084492	0.045572456608611034	0.9944471865482035	0.5414711547264953	
329	5.483333333333333	0.2926200050030309	0.3212930345740234	0.6087098693163902	0.2934936519351319	-0.04345600139838174	0.7681485009015541	0.31489241158539816	-0.43935546649006185	0.8695606911574963	0.2933600686251959	-0.5372799633671428	0.7624033835495669	0.3681977050445696	-0.5217531073826958	0.779144857225631	0.30642093815825516	-0.5172328231409788	0.9600471204293499	0.08399903193816993	0.3441442467157734	0.6491324721069993	0.13094572786299163	-0.042095456660894315	0.8374324043557776	0.14666234163427336	-0.4449668321948265	0.9423416040444028	0.10509030155984568	-0.5195349371077268	0.7896544566920268	0.06636154306520853	-0.5120200867447645	0.8406352339681369	0.1801011057984233	-0.48979053740820633	0.9971188532387628	0.1832470710880389	0.9235648667012544	0.5574588362985127	0.18427011024795148	1.1497051349806409	0.5147086971153716	0.1724918239722094	1.0150170072013893	0.46497569110818604	0.33972233737584345	0.8165545878849774	0.588081148688407	0.3912018442268679	0.5315479511676533	0.5439647175902658	0.39518156683137373	0.26438111500935824	0.5612783110747728	0.32649826427303286	0.1727602868673256	0.5128996575467181	0.34283295922595214	0.14983486940083032	0.5138441253086307	0.3951476136619685	0.1534247186128033	0.590094322801692	0.04770217681968486	0.8605240967724015	0.6433580298162707	-0.11352676012387984	0.7627809367318261	0.5299423156289179	0.04018891952393745	0.9312189345850774	0.555239925737602	0.06506957095841633	0.979474544555314	0.5533837555876969	0.061414667865526726	1.0135140413053731	0.5418826157911992	0.045082064976142436	0.9947578481656179	0.541001223526429	
330	5.5	0.29264396430189643	0.32080684080043886	0.6087297328223573	0.2932297543743694	-0.04320178058970642	0.7681591927278509	0.31469068681822154	-0.43897113445194214	0.8694861176614456	0.29342719078139007	-0.5374471823711662	0.7624997082144402	0.3681694689335905	-0.5216842359350988	0.7790494649010432	0.3057876963401328	-0.5172533362626577	0.959794715071143	0.0842126872729753	0.3445204007722581	0.6474896831203014	0.13158822211228333	-0.04150806601182727	0.8369299769076695	0.14639658522908222	-0.4448985125732964	0.9422317355138959	0.10489999787075259	-0.519727168837549	0.7910693085492165	0.06636146669304398	-0.511931276600254	0.8406329535105586	0.17954907162638437	-0.48964683971563006	0.9961960478852778	0.1832340332864813	0.9243112471833266	0.5574440020338949	0.1835744051051564	1.1510505425546438	0.5148583425428729	0.1704624747570681	1.0169762977240817	0.46715076579130665	0.3398777177494794	0.8165091743087585	0.58590182237027	0.3911993882048055	0.531733518348493	0.5439078566524382	0.39471978283178477	0.26456971678603536	0.5612629830388856	0.3264710561960665	0.17333359232699644	0.5129094664835423	0.34187694947976965	0.1504632143745719	0.5124368965878525	0.3951926157321799	0.15345870122543845	0.5900495343642614	0.04711628285805603	0.8615621809130628	0.6431747984787874	-0.11475047162238089	0.7633602294151258	0.5296163946610069	0.03775428042310069	0.9317197496905016	0.5502147160767059	0.06551268914107448	0.9783300659693305	0.5475983273579876	0.06190876279610337	1.0113706244360967	0.535849295611747	0.044177714649027935	0.9947792463039994	0.5398705474458578	
331	5.516666666666667	0.2926818219652261	0.32031671104109394	0.6087713835061869	0.29304283466574155	-0.0429756709366485	0.7680764905387792	0.3143148532628863	-0.43874190629420806	0.8694764323120551	0.29350052388138836	-0.5375926565382805	0.7625690591347298	0.36814835895834425	-0.5214903757932332	0.7790229048649395	0.30496139301640346	-0.5171240488761792	0.9593233560947461	0.08438389257624382	0.34482212096808396	0.6461498335599497	0.13217350234719424	-0.040947493627628784	0.8365192748078862	0.146060599043735	-0.4448225410715199	0.9421139479637334	0.10478915940422706	-0.51903149034342	0.7908088307951472	0.06636146975626032	-0.5118817526513061	0.8406207867944385	0.17895105233404263	-0.4895534597587303	0.9952066422601487	0.18356172574970883	0.9250186515884798	0.5573574375892992	0.18267325271622506	1.152285778777414	0.5150449197165399	0.16815182747926322	1.0189493859978862	0.46912038153922625	0.34000374425114366	0.8164958022740293	0.5844257768394039	0.3911808472915649	0.5321999358416589	0.5439222111056895	0.3946984947610429	0.26526341624171196	0.5612745253491067	0.32637372082296323	0.17382535398910995	0.5132336707780863	0.3412714531619241	0.15133665353684195	0.5113582712902381	0.3954626071337183	0.1534903660753437	0.5899268422771928	0.04642995920920394	0.8627277426194118	0.6414577631284536	-0.1159282842841419	0.7640013412370638	0.530379523368363	0.035249515442782695	0.9315787214495321	0.5447184124719053	0.06580631050623917	0.9793204314716054	0.5447089160641863	0.06201748875179321	1.0100718887899431	0.5321791295978998	0.04318974003009621	0.9947468889229488	0.5376248382900125	
